<?xml version="1.0" encoding="UTF-8" standalone="no"?>
<svg
   xmlns:dc="http://purl.org/dc/elements/1.1/"
   xmlns:cc="http://creativecommons.org/ns#"
   xmlns:rdf="http://www.w3.org/1999/02/22-rdf-syntax-ns#"
   xmlns:svg="http://www.w3.org/2000/svg"
   xmlns="http://www.w3.org/2000/svg"
   viewBox="0 0 1440 1440"
   height="1440"
   width="1440"
   xml:space="preserve"
   id="svg2"
   version="1.1"><metadata
     id="metadata8"><rdf:RDF><cc:Work
         rdf:about=""><dc:format>image/svg+xml</dc:format><dc:type
           rdf:resource="http://purl.org/dc/dcmitype/StillImage" /></cc:Work></rdf:RDF></metadata><defs
     id="defs6"><clipPath
       id="clipPath18"
       clipPathUnits="userSpaceOnUse"><path
         id="path16"
         d="M 0,1080 H 1080 V 0 H 0 Z" /></clipPath></defs><g
     transform="matrix(1.3333333,0,0,-1.3333333,0,1440)"
     id="g10"><g
       id="g12"><g
         clip-path="url(#clipPath18)"
         id="g14"><g
           transform="translate(540.3503,558.774)"
           id="g20"><path
             id="path22"
             style="fill:#6e8653;fill-opacity:1;fill-rule:nonzero;stroke:none"
             d="m 0,0 c -132.059,0 -256.171,-8.633 -349.473,-24.308 -103.778,-17.434 -140.754,-39.172 -140.754,-53.702 0,-14.53 36.976,-36.269 140.754,-53.704 93.302,-15.675 217.414,-24.307 349.473,-24.307 132.059,0 256.171,8.632 349.472,24.307 103.778,17.435 140.755,39.174 140.755,53.704 0,14.53 -36.977,36.268 -140.755,53.702 C 256.171,-8.633 132.059,0 0,0 m 0,-166.474 c -132.622,0 -257.348,8.683 -351.205,24.451 -99.185,16.664 -149.475,38.201 -149.475,64.013 0,25.811 50.29,47.348 149.475,64.011 93.857,15.768 218.584,24.452 351.205,24.452 132.622,0 257.348,-8.684 351.204,-24.452 99.184,-16.663 149.476,-38.2 149.476,-64.011 0,-25.812 -50.292,-47.349 -149.476,-64.013 C 257.348,-157.791 132.622,-166.474 0,-166.474" /></g><g
           transform="translate(540.3503,522.1511)"
           id="g24"><path
             id="path26"
             style="fill:#6e8653;fill-opacity:1;fill-rule:nonzero;stroke:none"
             d="m 0,0 c -132.06,0 -256.172,-8.633 -349.473,-24.307 -103.778,-17.435 -140.754,-39.173 -140.754,-53.703 0,-14.53 36.976,-36.268 140.754,-53.703 93.302,-15.674 217.413,-24.307 349.473,-24.307 132.059,0 256.171,8.633 349.472,24.307 103.778,17.435 140.755,39.173 140.755,53.703 0,14.53 -36.977,36.268 -140.755,53.703 C 256.171,-8.633 132.059,0 0,0 m 0,-166.473 c -132.622,0 -257.348,8.684 -351.205,24.452 -99.185,16.663 -149.475,38.2 -149.475,64.011 0,25.811 50.29,47.349 149.475,64.011 93.856,15.768 218.583,24.452 351.205,24.452 132.622,0 257.348,-8.684 351.204,-24.452 99.184,-16.662 149.476,-38.2 149.476,-64.011 0,-25.811 -50.292,-47.348 -149.476,-64.011 C 257.348,-157.789 132.622,-166.473 0,-166.473" /></g><g
           transform="translate(545.9213,488.412)"
           id="g28"><path
             id="path30"
             style="fill:#6e8653;fill-opacity:1;fill-rule:nonzero;stroke:none"
             d="m 0,0 c -132.06,0 -256.172,-8.633 -349.473,-24.307 -103.778,-17.435 -140.754,-39.173 -140.754,-53.703 0,-14.53 36.976,-36.268 140.754,-53.703 93.302,-15.674 217.413,-24.307 349.473,-24.307 132.06,0 256.17,8.633 349.473,24.307 103.778,17.435 140.754,39.173 140.754,53.703 0,14.53 -36.976,36.268 -140.754,53.703 C 256.172,-8.633 132.06,0 0,0 m 0,-166.473 c -132.622,0 -257.348,8.684 -351.205,24.452 -99.185,16.663 -149.475,38.2 -149.475,64.011 0,25.811 50.29,47.349 149.475,64.011 93.856,15.768 218.583,24.452 351.205,24.452 132.621,0 257.349,-8.684 351.205,-24.452 99.184,-16.662 149.475,-38.2 149.475,-64.011 0,-25.811 -50.291,-47.348 -149.475,-64.011 C 257.348,-157.789 132.621,-166.473 0,-166.473" /></g><g
           transform="translate(422.404,295.4923)"
           id="g32"><path
             id="path34"
             style="fill:#479203;fill-opacity:1;fill-rule:nonzero;stroke:none"
             d="M 0,0 V -3.275 -85.61 l -51.132,-46.185 h -353.05 v 60.384 h 322.109 3.014 L -57.3,-51.76 v 5.122 501.743 H 0 Z" /></g><g
           transform="translate(340.3307,701.0504)"
           id="g36"><path
             id="path38"
             style="fill:#479203;fill-opacity:1;fill-rule:nonzero;stroke:none"
             d="m 0,0 v -411.9 l -44.617,-40.296 h -251.167 v 43.363 h 224.721 l 24.599,22.212 0,386.621 z" /></g><g
           transform="translate(519.9651,806.3467)"
           id="g40"><path
             id="path42"
             style="fill:#479203;fill-opacity:1;fill-rule:nonzero;stroke:none"
             d="m 0,0 v -678.729 l -69.687,-62.945 -0.104,-0.087 h -109.843 -2.23 -319.879 v 74.321 h 404.182 l 27.874,24.791 0,642.649 z" /></g><g
           transform="translate(657.596,295.4923)"
           id="g44"><path
             id="path46"
             style="fill:#479203;fill-opacity:1;fill-rule:nonzero;stroke:none"
             d="M 0,0 V -3.275 -85.61 l 51.132,-46.185 h 353.05 v 60.384 H 82.073 79.059 L 57.3,-51.76 v 5.122 501.743 H 0 Z" /></g><g
           transform="translate(739.6693,701.0504)"
           id="g48"><path
             id="path50"
             style="fill:#479203;fill-opacity:1;fill-rule:nonzero;stroke:none"
             d="m 0,0 v -411.9 l 44.617,-40.296 h 251.167 v 43.363 H 71.063 l -24.599,22.212 0,386.621 z" /></g><g
           transform="translate(560.0349,806.3467)"
           id="g52"><path
             id="path54"
             style="fill:#479203;fill-opacity:1;fill-rule:nonzero;stroke:none"
             d="m 0,0 v -678.729 l 69.687,-62.945 0.104,-0.087 h 109.843 2.23 319.879 v 74.321 H 97.561 l -27.874,24.791 0,642.649 z" /></g><g
           transform="translate(1030.5756,480.7633)"
           id="g56"><path
             id="path58"
             style="fill:#6e8653;fill-opacity:1;fill-rule:nonzero;stroke:none"
             d="m 0,0 c 0,-3.537 -2.195,-7.509 -7.021,-11.742 -2.439,-2.126 -5.54,-4.338 -9.373,-6.568 -5.679,-3.345 -12.927,-6.777 -21.968,-10.227 -5.053,-1.916 -10.645,-3.85 -16.812,-5.784 -0.889,-0.296 -1.812,-0.575 -2.735,-0.853 -20.872,-6.359 -48.119,-12.683 -82.84,-18.519 -41.708,-7.004 -89.547,-12.614 -141.516,-16.656 -64.303,-5.017 -134.913,-7.648 -207.962,-7.648 -73.049,0 -143.659,2.631 -207.962,7.648 -51.969,4.042 -99.809,9.652 -141.516,16.656 -33.171,5.574 -59.512,11.585 -80,17.665 -0.958,0.279 -1.899,0.575 -2.822,0.854 -5.07,1.55 -9.774,3.101 -14.112,4.634 -11.62,4.129 -20.645,8.24 -27.422,12.23 -3.832,2.247 -6.934,4.442 -9.372,6.568 -4.826,4.233 -7.021,8.205 -7.021,11.742 h -10.453 c 0,-6.376 3.066,-12.474 9.163,-18.31 2.335,-2.23 5.105,-4.425 8.328,-6.568 5.296,-3.537 11.794,-6.969 19.495,-10.296 0.941,-0.418 1.899,-0.819 2.857,-1.202 4.477,-1.864 9.32,-3.676 14.547,-5.436 23.902,-8.153 55.627,-15.557 95.087,-22.195 13.45,-2.265 27.526,-4.373 42.161,-6.342 87.578,-11.724 195.418,-18.101 309.042,-18.101 113.641,0 221.464,6.377 309.042,18.101 14.634,1.969 28.711,4.077 42.16,6.342 42.683,7.178 76.325,15.261 100.785,24.199 4.163,1.498 8.066,3.048 11.707,4.634 0.923,0.4 1.829,0.801 2.718,1.202 6.533,2.944 12.125,5.975 16.794,9.094 3.223,2.16 5.993,4.338 8.31,6.568 6.098,5.836 9.164,11.934 9.164,18.31 z" /></g><g
           transform="translate(1040.9763,445.589)"
           id="g60"><path
             id="path62"
             style="fill:#6e8653;fill-opacity:1;fill-rule:nonzero;stroke:none"
             d="m 0,0 c -0.436,5.854 -3.467,11.481 -9.112,16.864 -2.317,2.23 -5.087,4.425 -8.31,6.568 -2.439,-2.125 -5.54,-4.338 -9.372,-6.568 3.832,-2.23 6.933,-4.442 9.372,-6.568 4.182,-3.658 6.377,-7.125 6.899,-10.296 0.087,-0.488 0.122,-0.976 0.122,-1.446 0,-2.404 -1.01,-5 -3.17,-7.735 -1.847,-2.37 -4.547,-4.826 -8.189,-7.37 -8.501,-5.958 -22.073,-12.299 -41.846,-18.623 -21.429,-6.847 -50.157,-13.694 -87.544,-19.965 -93.31,-15.68 -217.422,-24.321 -349.478,-24.321 -132.056,0 -256.168,8.641 -349.478,24.321 -37.387,6.271 -66.097,13.118 -87.543,19.965 -15.924,5.104 -27.823,10.209 -36.29,15.104 -3.693,2.126 -6.724,4.216 -9.146,6.237 -5.349,4.478 -7.77,8.676 -7.77,12.387 0,0.47 0.035,0.958 0.122,1.446 0.522,3.171 2.735,6.638 6.916,10.296 2.439,2.143 5.54,4.338 9.356,6.568 -3.833,2.247 -6.934,4.443 -9.373,6.568 -3.223,-2.143 -5.993,-4.338 -8.31,-6.568 -5.645,-5.383 -8.676,-11.01 -9.112,-16.864 -0.035,-0.47 -0.052,-0.958 -0.052,-1.446 0,-6.916 3.606,-13.502 10.784,-19.791 2.404,-2.108 5.209,-4.164 8.415,-6.202 4.163,-2.648 9.006,-5.227 14.512,-7.735 24.913,-11.394 63.571,-21.516 115.766,-30.279 93.851,-15.767 218.59,-24.46 351.203,-24.46 132.631,0 257.352,8.693 351.203,24.46 52.195,8.763 90.853,18.885 115.766,30.279 8.694,3.972 15.732,8.101 21.063,12.369 3.032,2.422 5.505,4.896 7.439,7.422 3.467,4.494 5.209,9.146 5.209,13.937 C 0.052,-0.958 0.035,-0.47 0,0" /></g><g
           transform="translate(1035.8196,430.2057)"
           id="g64"><path
             id="path66"
             style="fill:#6e8653;fill-opacity:1;fill-rule:nonzero;stroke:none"
             d="m 0,0 c -2.404,2.091 -5.209,4.164 -8.415,6.202 -4.965,3.153 -10.888,6.202 -17.787,9.181 -0.941,0.418 -1.899,0.819 -2.857,1.202 -4.478,1.865 -9.321,3.676 -14.547,5.436 -5.053,-1.916 -10.645,-3.85 -16.812,-5.784 0.958,-0.279 1.899,-0.575 2.822,-0.854 5.07,-1.55 9.774,-3.101 14.112,-4.634 11.306,-4.024 20.174,-8.031 26.881,-11.916 3.693,-2.126 6.725,-4.216 9.164,-6.255 5.348,-4.46 7.77,-8.658 7.77,-12.369 0,-14.53 -36.986,-36.272 -140.749,-53.711 -93.311,-15.679 -217.422,-24.303 -349.478,-24.303 -132.056,0 -256.168,8.624 -349.478,24.303 -103.781,17.439 -140.749,39.181 -140.749,53.711 0,2.404 1.01,5 3.17,7.735 1.83,2.352 4.53,4.826 8.171,7.37 6.167,4.32 15.035,8.85 27.021,13.432 5.052,1.916 10.645,3.85 16.812,5.784 0.888,0.296 1.812,0.575 2.735,0.853 h -5.557 c -5.07,1.551 -9.774,3.101 -14.112,4.634 -4.164,-1.498 -8.066,-3.048 -11.707,-4.634 -0.924,-0.4 -1.83,-0.801 -2.718,-1.202 -8.955,-4.042 -16.167,-8.258 -21.62,-12.63 -3.032,-2.422 -5.506,-4.878 -7.439,-7.405 -3.467,-4.494 -5.209,-9.146 -5.209,-13.937 0,-25.819 50.296,-47.352 149.477,-64.024 93.85,-15.767 218.572,-24.443 351.203,-24.443 132.613,0 257.352,8.676 351.202,24.443 99.182,16.672 149.478,38.205 149.478,64.024 C 10.784,-12.875 7.178,-6.289 0,0" /></g><g
           transform="translate(391.4322,975.1506)"
           id="g68"><path
             id="path70"
             style="fill:#479203;fill-opacity:1;fill-rule:nonzero;stroke:none"
             d="M 0,0 H 57.298 V 40.263 H 234.611 V 0 h 58.847 v -100.658 h -58.072 v -40.264 H 61.944 v 40.264 H 0 Z" /></g></g></g></g></svg>